<?xml version="1.0" encoding="UTF-8"?>
<svg xmlns="http://www.w3.org/2000/svg" xmlns:xlink="http://www.w3.org/1999/xlink" width="206.213pt" height="144.46pt" viewBox="0 0 206.213 144.46">
<defs>
<g>
<g id="glyph-0-0">
<path d="M -6.890625 -1.75 L -6.78125 -0.328125 L -6.46875 -0.328125 C -6.46875 -1.015625 -6.40625 -1.09375 -5.90625 -1.09375 L -0.75 -1.09375 C -0.3125 -1.09375 -0.3125 -0.984375 -0.3125 -0.328125 L 0 -0.328125 C -0.015625 -0.65625 -0.03125 -1.1875 -0.03125 -1.421875 C -0.03125 -1.671875 -0.015625 -2.15625 0 -2.53125 L -0.3125 -2.53125 C -0.3125 -1.859375 -0.3125 -1.75 -0.75 -1.75 Z M -6.890625 -1.75 "/>
</g>
<g id="glyph-0-1">
<path d="M -4.390625 -1.75 L -4.28125 -0.359375 L -3.96875 -0.359375 C -3.96875 -1.015625 -3.90625 -1.09375 -3.421875 -1.09375 L -0.75 -1.09375 C -0.3125 -1.09375 -0.3125 -0.984375 -0.3125 -0.328125 L 0 -0.328125 C -0.015625 -0.640625 -0.03125 -1.1875 -0.03125 -1.421875 C -0.03125 -1.765625 -0.015625 -2.109375 0 -2.453125 L -0.3125 -2.453125 C -0.3125 -1.796875 -0.359375 -1.75 -0.75 -1.75 Z M -6.109375 -1.796875 C -6.421875 -1.796875 -6.640625 -1.546875 -6.640625 -1.265625 C -6.640625 -0.96875 -6.375 -0.75 -6.109375 -0.75 C -5.84375 -0.75 -5.59375 -0.96875 -5.59375 -1.265625 C -5.59375 -1.546875 -5.796875 -1.796875 -6.109375 -1.796875 Z M -6.109375 -1.796875 "/>
</g>
<g id="glyph-0-2">
<path d="M -3.40625 -1.09375 L -0.75 -1.09375 C -0.3125 -1.09375 -0.3125 -0.984375 -0.3125 -0.3125 L 0 -0.3125 C -0.015625 -0.671875 -0.03125 -1.171875 -0.03125 -1.4375 C -0.03125 -1.703125 -0.015625 -2.21875 0 -2.546875 L -0.3125 -2.546875 C -0.3125 -1.890625 -0.3125 -1.78125 -0.75 -1.78125 L -2.578125 -1.78125 C -3.609375 -1.78125 -4.171875 -2.484375 -4.171875 -3.109375 C -4.171875 -3.734375 -3.625 -3.84375 -3.0625 -3.84375 L -0.75 -3.84375 C -0.3125 -3.84375 -0.3125 -3.734375 -0.3125 -3.078125 L 0 -3.078125 C -0.015625 -3.421875 -0.03125 -3.921875 -0.03125 -4.203125 C -0.03125 -4.453125 -0.015625 -4.96875 0 -5.3125 L -0.3125 -5.3125 C -0.3125 -4.796875 -0.3125 -4.546875 -0.609375 -4.53125 L -2.5 -4.53125 C -3.359375 -4.53125 -3.65625 -4.53125 -4.015625 -4.234375 C -4.1875 -4.09375 -4.390625 -3.765625 -4.390625 -3.1875 C -4.390625 -2.453125 -3.953125 -2 -3.34375 -1.71875 L -4.390625 -1.71875 L -4.28125 -0.3125 L -3.96875 -0.3125 C -3.96875 -1.015625 -3.90625 -1.09375 -3.40625 -1.09375 Z M -3.40625 -1.09375 "/>
</g>
<g id="glyph-0-3">
<path d="M -2.5 -1.109375 C -3.984375 -1.171875 -4.234375 -2 -4.234375 -2.34375 C -4.234375 -3.359375 -2.890625 -3.46875 -2.5 -3.46875 Z M -2.296875 -1.09375 L -2.296875 -3.875 C -2.296875 -4.09375 -2.296875 -4.125 -2.5 -4.125 C -3.484375 -4.125 -4.4375 -3.578125 -4.4375 -2.34375 C -4.4375 -1.1875 -3.421875 -0.28125 -2.1875 -0.28125 C -0.859375 -0.28125 0.109375 -1.3125 0.109375 -2.453125 C 0.109375 -3.671875 -0.984375 -4.125 -1.1875 -4.125 C -1.28125 -4.125 -1.296875 -4.03125 -1.296875 -3.984375 C -1.296875 -3.90625 -1.234375 -3.875 -1.15625 -3.859375 C -0.140625 -3.515625 -0.140625 -2.625 -0.140625 -2.515625 C -0.140625 -2.03125 -0.4375 -1.625 -0.796875 -1.40625 C -1.28125 -1.09375 -1.9375 -1.09375 -2.296875 -1.09375 Z M -2.296875 -1.09375 "/>
</g>
<g id="glyph-0-4">
<path d="M -3.96875 -1.71875 L -3.96875 -3.140625 L -4.28125 -3.140625 L -4.28125 -1.71875 L -6.109375 -1.71875 L -6.109375 -1.46875 C -5.28125 -1.453125 -4.234375 -1.15625 -4.1875 -0.1875 L -3.96875 -0.1875 L -3.96875 -1.03125 L -1.234375 -1.03125 C -0.015625 -1.03125 0.109375 -1.953125 0.109375 -2.3125 C 0.109375 -3.015625 -0.59375 -3.296875 -1.234375 -3.296875 L -1.796875 -3.296875 L -1.796875 -3.046875 L -1.25 -3.046875 C -0.515625 -3.046875 -0.140625 -2.75 -0.140625 -2.375 C -0.140625 -1.71875 -1.046875 -1.71875 -1.203125 -1.71875 Z M -3.96875 -1.71875 "/>
</g>
<g id="glyph-0-5">
<path d="M -3.296875 -1.65625 L -4.390625 -1.65625 L -4.28125 -0.28125 L -3.96875 -0.28125 C -3.96875 -0.96875 -3.90625 -1.046875 -3.40625 -1.046875 L -0.75 -1.046875 C -0.3125 -1.046875 -0.3125 -0.9375 -0.3125 -0.28125 L 0 -0.28125 C -0.015625 -0.671875 -0.03125 -1.125 -0.03125 -1.40625 C -0.03125 -1.8125 -0.03125 -2.265625 0 -2.671875 L -0.3125 -2.671875 L -0.3125 -2.453125 C -0.3125 -1.71875 -0.421875 -1.703125 -0.78125 -1.703125 L -2.296875 -1.703125 C -3.28125 -1.703125 -4.171875 -2.125 -4.171875 -2.875 C -4.171875 -2.953125 -4.171875 -2.96875 -4.15625 -2.984375 C -4.140625 -2.953125 -4.03125 -2.765625 -3.765625 -2.765625 C -3.5 -2.765625 -3.34375 -2.96875 -3.34375 -3.1875 C -3.34375 -3.359375 -3.46875 -3.609375 -3.78125 -3.609375 C -4.09375 -3.609375 -4.390625 -3.296875 -4.390625 -2.875 C -4.390625 -2.15625 -3.71875 -1.796875 -3.296875 -1.65625 Z M -3.296875 -1.65625 "/>
</g>
<g id="glyph-0-6">
<path d="M -0.75 -3.296875 C -0.359375 -3.34375 0.0625 -3.609375 0.0625 -4.078125 C 0.0625 -4.28125 -0.078125 -4.890625 -0.890625 -4.890625 L -1.4375 -4.890625 L -1.4375 -4.640625 L -0.890625 -4.640625 C -0.3125 -4.640625 -0.25 -4.390625 -0.25 -4.28125 C -0.25 -3.953125 -0.6875 -3.921875 -0.75 -3.921875 L -2.734375 -3.921875 C -3.140625 -3.921875 -3.53125 -3.921875 -3.90625 -3.5625 C -4.28125 -3.171875 -4.4375 -2.671875 -4.4375 -2.203125 C -4.4375 -1.390625 -3.984375 -0.703125 -3.328125 -0.703125 C -3.03125 -0.703125 -2.859375 -0.90625 -2.859375 -1.15625 C -2.859375 -1.4375 -3.0625 -1.625 -3.3125 -1.625 C -3.4375 -1.625 -3.765625 -1.5625 -3.765625 -1.109375 C -4.125 -1.375 -4.234375 -1.859375 -4.234375 -2.1875 C -4.234375 -2.671875 -3.84375 -3.234375 -2.953125 -3.234375 L -2.59375 -3.234375 C -2.5625 -2.734375 -2.53125 -2.03125 -2.234375 -1.40625 C -1.890625 -0.671875 -1.375 -0.421875 -0.9375 -0.421875 C -0.140625 -0.421875 0.109375 -1.375 0.109375 -2 C 0.109375 -2.65625 -0.28125 -3.109375 -0.75 -3.296875 Z M -2.375 -3.234375 L -1.390625 -3.234375 C -0.453125 -3.234375 -0.109375 -2.515625 -0.109375 -2.078125 C -0.109375 -1.59375 -0.453125 -1.1875 -0.953125 -1.1875 C -1.5 -1.1875 -2.328125 -1.59375 -2.375 -3.234375 Z M -2.375 -3.234375 "/>
</g>
<g id="glyph-0-7">
<path d="M -1.921875 -2.0625 C -1.890625 -2.28125 -1.71875 -3.09375 -1.015625 -3.09375 C -0.5 -3.09375 -0.109375 -2.75 -0.109375 -1.96875 C -0.109375 -1.140625 -0.671875 -0.78125 -1.515625 -0.59375 C -1.640625 -0.5625 -1.6875 -0.5625 -1.6875 -0.453125 C -1.6875 -0.328125 -1.625 -0.328125 -1.4375 -0.328125 L -0.125 -0.328125 C 0.046875 -0.328125 0.109375 -0.328125 0.109375 -0.4375 C 0.109375 -0.484375 0.09375 -0.5 -0.09375 -0.6875 C -0.109375 -0.703125 -0.125 -0.703125 -0.3125 -0.890625 C 0.09375 -1.3125 0.109375 -1.765625 0.109375 -1.96875 C 0.109375 -3.109375 -0.5625 -3.578125 -1.265625 -3.578125 C -1.796875 -3.578125 -2.09375 -3.28125 -2.21875 -3.15625 C -2.53125 -2.828125 -2.609375 -2.4375 -2.6875 -2.03125 C -2.796875 -1.46875 -2.921875 -0.796875 -3.5 -0.796875 C -3.84375 -0.796875 -4.25 -1.0625 -4.25 -1.921875 C -4.25 -3 -3.359375 -3.0625 -3.0625 -3.078125 C -2.96875 -3.078125 -2.96875 -3.171875 -2.96875 -3.1875 C -2.96875 -3.328125 -3.015625 -3.328125 -3.203125 -3.328125 L -4.203125 -3.328125 C -4.375 -3.328125 -4.4375 -3.328125 -4.4375 -3.21875 C -4.4375 -3.171875 -4.4375 -3.140625 -4.328125 -3.015625 C -4.28125 -2.984375 -4.203125 -2.890625 -4.171875 -2.84375 C -4.4375 -2.46875 -4.4375 -2.0625 -4.4375 -1.921875 C -4.4375 -0.703125 -3.78125 -0.328125 -3.21875 -0.328125 C -2.875 -0.328125 -2.59375 -0.484375 -2.375 -0.75 C -2.125 -1.078125 -2.0625 -1.34375 -1.921875 -2.0625 Z M -1.921875 -2.0625 "/>
</g>
<g id="glyph-0-8">
<path d="M -4.28125 -1.734375 L -5.421875 -1.734375 C -6.296875 -1.734375 -6.78125 -2.21875 -6.78125 -2.65625 C -6.78125 -2.671875 -6.78125 -2.828125 -6.703125 -2.96875 C -6.671875 -2.859375 -6.53125 -2.671875 -6.296875 -2.671875 C -6.0625 -2.671875 -5.859375 -2.84375 -5.859375 -3.109375 C -5.859375 -3.390625 -6.0625 -3.546875 -6.296875 -3.546875 C -6.671875 -3.546875 -7 -3.171875 -7 -2.65625 C -7 -1.953125 -6.46875 -1.109375 -5.421875 -1.109375 L -4.28125 -1.109375 L -4.28125 -0.328125 L -3.96875 -0.328125 L -3.96875 -1.109375 L -0.75 -1.109375 C -0.3125 -1.109375 -0.3125 -1 -0.3125 -0.34375 L 0 -0.34375 C -0.015625 -0.71875 -0.03125 -1.1875 -0.03125 -1.46875 C -0.03125 -1.859375 -0.03125 -2.328125 0 -2.734375 L -0.3125 -2.734375 L -0.3125 -2.515625 C -0.3125 -1.78125 -0.421875 -1.765625 -0.78125 -1.765625 L -3.96875 -1.765625 L -3.96875 -2.890625 L -4.28125 -2.890625 Z M -4.28125 -1.734375 "/>
</g>
<g id="glyph-0-9">
<path d="M -2.125 -4.671875 C -3.390625 -4.671875 -4.4375 -3.6875 -4.4375 -2.484375 C -4.4375 -1.234375 -3.359375 -0.28125 -2.125 -0.28125 C -0.84375 -0.28125 0.109375 -1.3125 0.109375 -2.46875 C 0.109375 -3.671875 -0.859375 -4.671875 -2.125 -4.671875 Z M -0.140625 -2.484375 C -0.140625 -2.046875 -0.34375 -1.625 -0.796875 -1.34375 C -1.234375 -1.09375 -1.84375 -1.09375 -2.203125 -1.09375 C -2.59375 -1.09375 -3.125 -1.09375 -3.5625 -1.34375 C -4.015625 -1.609375 -4.234375 -2.078125 -4.234375 -2.46875 C -4.234375 -2.90625 -4.015625 -3.328125 -3.578125 -3.59375 C -3.15625 -3.84375 -2.578125 -3.84375 -2.203125 -3.84375 C -1.84375 -3.84375 -1.3125 -3.84375 -0.875 -3.625 C -0.421875 -3.40625 -0.140625 -2.96875 -0.140625 -2.484375 Z M -0.140625 -2.484375 "/>
</g>
<g id="glyph-0-10">
<path d="M -3.40625 -1.09375 L -0.75 -1.09375 C -0.3125 -1.09375 -0.3125 -0.984375 -0.3125 -0.3125 L 0 -0.3125 C -0.015625 -0.671875 -0.03125 -1.171875 -0.03125 -1.4375 C -0.03125 -1.703125 -0.015625 -2.21875 0 -2.546875 L -0.3125 -2.546875 C -0.3125 -1.890625 -0.3125 -1.78125 -0.75 -1.78125 L -2.578125 -1.78125 C -3.609375 -1.78125 -4.171875 -2.484375 -4.171875 -3.109375 C -4.171875 -3.734375 -3.625 -3.84375 -3.0625 -3.84375 L -0.75 -3.84375 C -0.3125 -3.84375 -0.3125 -3.734375 -0.3125 -3.078125 L 0 -3.078125 C -0.015625 -3.421875 -0.03125 -3.921875 -0.03125 -4.203125 C -0.03125 -4.453125 -0.015625 -4.96875 0 -5.3125 L -0.3125 -5.3125 C -0.3125 -4.640625 -0.3125 -4.53125 -0.75 -4.53125 L -2.578125 -4.53125 C -3.609375 -4.53125 -4.171875 -5.234375 -4.171875 -5.875 C -4.171875 -6.5 -3.625 -6.609375 -3.0625 -6.609375 L -0.75 -6.609375 C -0.3125 -6.609375 -0.3125 -6.5 -0.3125 -5.828125 L 0 -5.828125 C -0.015625 -6.1875 -0.03125 -6.6875 -0.03125 -6.953125 C -0.03125 -7.21875 -0.015625 -7.734375 0 -8.0625 L -0.3125 -8.0625 C -0.3125 -7.546875 -0.3125 -7.296875 -0.609375 -7.296875 L -2.5 -7.296875 C -3.359375 -7.296875 -3.65625 -7.296875 -4.015625 -6.984375 C -4.1875 -6.84375 -4.390625 -6.515625 -4.390625 -5.9375 C -4.390625 -5.109375 -3.796875 -4.671875 -3.40625 -4.5 C -4.28125 -4.359375 -4.390625 -3.625 -4.390625 -3.1875 C -4.390625 -2.453125 -3.953125 -2 -3.34375 -1.71875 L -4.390625 -1.71875 L -4.28125 -0.3125 L -3.96875 -0.3125 C -3.96875 -1.015625 -3.90625 -1.09375 -3.40625 -1.09375 Z M -3.40625 -1.09375 "/>
</g>
<g id="glyph-0-11">
<path d="M -0.78125 -3.875 L 0.109375 -3.875 L 0 -5.3125 L -0.3125 -5.3125 C -0.3125 -4.609375 -0.375 -4.53125 -0.859375 -4.53125 L -4.390625 -4.53125 L -4.28125 -3.078125 L -3.96875 -3.078125 C -3.96875 -3.765625 -3.90625 -3.84375 -3.40625 -3.84375 L -1.640625 -3.84375 C -0.78125 -3.84375 -0.109375 -3.375 -0.109375 -2.65625 C -0.109375 -1.8125 -0.578125 -1.78125 -1.09375 -1.78125 L -4.390625 -1.78125 L -4.28125 -0.3125 L -3.96875 -0.3125 C -3.96875 -1.09375 -3.9375 -1.09375 -3.0625 -1.09375 L -1.5625 -1.09375 C -0.796875 -1.09375 0.109375 -1.09375 0.109375 -2.59375 C 0.109375 -3.15625 -0.171875 -3.59375 -0.78125 -3.875 Z M -0.78125 -3.875 "/>
</g>
<g id="glyph-0-12">
<path d="M -2.15625 -1.15625 C -3.78125 -1.15625 -4.203125 -1.96875 -4.203125 -2.5 C -4.203125 -2.59375 -4.1875 -3.21875 -3.828125 -3.5625 C -3.796875 -3.15625 -3.5 -3.09375 -3.375 -3.09375 C -3.109375 -3.09375 -2.921875 -3.28125 -2.921875 -3.546875 C -2.921875 -3.8125 -3.078125 -4.015625 -3.390625 -4.015625 C -4.0625 -4.015625 -4.4375 -3.25 -4.4375 -2.484375 C -4.4375 -1.25 -3.375 -0.34375 -2.140625 -0.34375 C -0.875 -0.34375 0.109375 -1.3125 0.109375 -2.46875 C 0.109375 -3.796875 -1.078125 -4.125 -1.1875 -4.125 C -1.28125 -4.125 -1.28125 -4.015625 -1.28125 -3.984375 C -1.28125 -3.90625 -1.234375 -3.875 -1.1875 -3.859375 C -0.265625 -3.578125 -0.140625 -2.921875 -0.140625 -2.5625 C -0.140625 -2.03125 -0.5625 -1.15625 -2.15625 -1.15625 Z M -2.15625 -1.15625 "/>
</g>
<g id="glyph-1-0">
<path d="M -6.78125 -2.5625 C -6.78125 -2.5625 -6.890625 -2.5625 -6.890625 -2.4375 C -6.890625 -2.203125 -6.8125 -1.484375 -6.78125 -1.21875 C -6.78125 -1.140625 -6.765625 -1.03125 -6.578125 -1.03125 C -6.46875 -1.03125 -6.46875 -1.125 -6.46875 -1.28125 C -6.46875 -1.75 -6.375 -1.765625 -6.296875 -1.765625 L -6.109375 -1.734375 L -1.140625 -0.484375 C -1.03125 -0.453125 -0.96875 -0.4375 -0.796875 -0.4375 C -0.234375 -0.4375 0.109375 -0.875 0.109375 -1.34375 C 0.109375 -1.671875 -0.09375 -1.921875 -0.453125 -2.078125 C -0.828125 -2.265625 -1.40625 -2.375 -1.421875 -2.375 C -1.515625 -2.375 -1.515625 -2.296875 -1.515625 -2.265625 C -1.515625 -2.15625 -1.484375 -2.15625 -1.34375 -2.125 C -0.6875 -1.953125 -0.109375 -1.765625 -0.109375 -1.375 C -0.109375 -1.078125 -0.421875 -1.078125 -0.5625 -1.078125 C -0.796875 -1.078125 -0.859375 -1.078125 -1.046875 -1.125 Z M -6.78125 -2.5625 "/>
</g>
<g id="glyph-1-1">
<path d="M -3 -3.3125 C -3.25 -3.375 -4.171875 -3.609375 -4.171875 -4.296875 C -4.171875 -4.34375 -4.171875 -4.578125 -4.03125 -4.796875 C -3.984375 -4.515625 -3.734375 -4.3125 -3.5 -4.3125 C -3.34375 -4.3125 -3.15625 -4.421875 -3.15625 -4.6875 C -3.15625 -4.90625 -3.328125 -5.234375 -3.734375 -5.234375 C -4.25 -5.234375 -4.390625 -4.640625 -4.390625 -4.3125 C -4.390625 -3.734375 -3.859375 -3.390625 -3.625 -3.265625 C -4.28125 -3.015625 -4.390625 -2.484375 -4.390625 -2.1875 C -4.390625 -1.15625 -3.109375 -0.59375 -2.859375 -0.59375 C -2.765625 -0.59375 -2.765625 -0.6875 -2.765625 -0.71875 C -2.765625 -0.796875 -2.78125 -0.828125 -2.875 -0.84375 C -3.921875 -1.1875 -4.171875 -1.828125 -4.171875 -2.171875 C -4.171875 -2.359375 -4.078125 -2.703125 -3.5 -2.703125 C -3.1875 -2.703125 -2.53125 -2.546875 -1.140625 -2.171875 C -0.53125 -2.015625 -0.109375 -1.671875 -0.109375 -1.234375 C -0.109375 -1.171875 -0.109375 -0.9375 -0.234375 -0.734375 C -0.28125 -0.984375 -0.5 -1.203125 -0.78125 -1.203125 C -1.046875 -1.203125 -1.125 -0.984375 -1.125 -0.828125 C -1.125 -0.53125 -0.859375 -0.28125 -0.546875 -0.28125 C -0.09375 -0.28125 0.109375 -0.78125 0.109375 -1.21875 C 0.109375 -1.875 -0.578125 -2.234375 -0.640625 -2.265625 C -0.28125 -2.375 0.109375 -2.734375 0.109375 -3.328125 C 0.109375 -4.359375 -1.171875 -4.921875 -1.421875 -4.921875 C -1.515625 -4.921875 -1.515625 -4.828125 -1.515625 -4.796875 C -1.515625 -4.71875 -1.484375 -4.6875 -1.40625 -4.671875 C -0.34375 -4.34375 -0.109375 -3.671875 -0.109375 -3.359375 C -0.109375 -2.96875 -0.421875 -2.8125 -0.765625 -2.8125 C -0.984375 -2.8125 -1.203125 -2.875 -1.640625 -2.96875 Z M -3 -3.3125 "/>
</g>
<g id="glyph-2-0">
<path d="M 1.703125 -3.734375 L 1.703125 -6.890625 L 0.28125 -6.78125 L 0.28125 -6.46875 C 0.96875 -6.46875 1.046875 -6.40625 1.046875 -5.90625 L 1.046875 0 L 1.296875 0 C 1.3125 -0.015625 1.390625 -0.15625 1.65625 -0.609375 C 1.8125 -0.390625 2.21875 0.109375 2.953125 0.109375 C 4.140625 0.109375 5.171875 -0.859375 5.171875 -2.140625 C 5.171875 -3.40625 4.203125 -4.390625 3.0625 -4.390625 C 2.296875 -4.390625 1.859375 -3.921875 1.703125 -3.734375 Z M 1.734375 -1.125 L 1.734375 -3.171875 C 1.734375 -3.359375 1.734375 -3.375 1.84375 -3.53125 C 2.234375 -4.09375 2.78125 -4.171875 3.015625 -4.171875 C 3.46875 -4.171875 3.8125 -3.90625 4.0625 -3.53125 C 4.3125 -3.125 4.34375 -2.5625 4.34375 -2.15625 C 4.34375 -1.78125 4.328125 -1.1875 4.03125 -0.75 C 3.828125 -0.4375 3.453125 -0.109375 2.921875 -0.109375 C 2.46875 -0.109375 2.109375 -0.34375 1.875 -0.71875 C 1.734375 -0.921875 1.734375 -0.953125 1.734375 -1.125 Z M 1.734375 -1.125 "/>
</g>
<g id="glyph-2-1">
<path d="M 3.875 -0.78125 L 3.875 0.109375 L 5.3125 0 L 5.3125 -0.3125 C 4.609375 -0.3125 4.53125 -0.375 4.53125 -0.859375 L 4.53125 -4.390625 L 3.078125 -4.28125 L 3.078125 -3.96875 C 3.765625 -3.96875 3.84375 -3.90625 3.84375 -3.40625 L 3.84375 -1.640625 C 3.84375 -0.78125 3.375 -0.109375 2.65625 -0.109375 C 1.8125 -0.109375 1.78125 -0.578125 1.78125 -1.09375 L 1.78125 -4.390625 L 0.3125 -4.28125 L 0.3125 -3.96875 C 1.09375 -3.96875 1.09375 -3.9375 1.09375 -3.0625 L 1.09375 -1.5625 C 1.09375 -0.796875 1.09375 0.109375 2.59375 0.109375 C 3.15625 0.109375 3.59375 -0.171875 3.875 -0.78125 Z M 3.875 -0.78125 "/>
</g>
<g id="glyph-2-2">
<path d="M 2.0625 -1.921875 C 2.28125 -1.890625 3.09375 -1.71875 3.09375 -1.015625 C 3.09375 -0.5 2.75 -0.109375 1.96875 -0.109375 C 1.140625 -0.109375 0.78125 -0.671875 0.59375 -1.515625 C 0.5625 -1.640625 0.5625 -1.6875 0.453125 -1.6875 C 0.328125 -1.6875 0.328125 -1.625 0.328125 -1.4375 L 0.328125 -0.125 C 0.328125 0.046875 0.328125 0.109375 0.4375 0.109375 C 0.484375 0.109375 0.5 0.09375 0.6875 -0.09375 C 0.703125 -0.109375 0.703125 -0.125 0.890625 -0.3125 C 1.3125 0.09375 1.765625 0.109375 1.96875 0.109375 C 3.109375 0.109375 3.578125 -0.5625 3.578125 -1.265625 C 3.578125 -1.796875 3.28125 -2.09375 3.15625 -2.21875 C 2.828125 -2.53125 2.4375 -2.609375 2.03125 -2.6875 C 1.46875 -2.796875 0.796875 -2.921875 0.796875 -3.5 C 0.796875 -3.84375 1.0625 -4.25 1.921875 -4.25 C 3 -4.25 3.0625 -3.359375 3.078125 -3.0625 C 3.078125 -2.96875 3.171875 -2.96875 3.1875 -2.96875 C 3.328125 -2.96875 3.328125 -3.015625 3.328125 -3.203125 L 3.328125 -4.203125 C 3.328125 -4.375 3.328125 -4.4375 3.21875 -4.4375 C 3.171875 -4.4375 3.140625 -4.4375 3.015625 -4.328125 C 2.984375 -4.28125 2.890625 -4.203125 2.84375 -4.171875 C 2.46875 -4.4375 2.0625 -4.4375 1.921875 -4.4375 C 0.703125 -4.4375 0.328125 -3.78125 0.328125 -3.21875 C 0.328125 -2.875 0.484375 -2.59375 0.75 -2.375 C 1.078125 -2.125 1.34375 -2.0625 2.0625 -1.921875 Z M 2.0625 -1.921875 "/>
</g>
<g id="glyph-2-3">
<path d="M 3.296875 -0.75 C 3.34375 -0.359375 3.609375 0.0625 4.078125 0.0625 C 4.28125 0.0625 4.890625 -0.078125 4.890625 -0.890625 L 4.890625 -1.4375 L 4.640625 -1.4375 L 4.640625 -0.890625 C 4.640625 -0.3125 4.390625 -0.25 4.28125 -0.25 C 3.953125 -0.25 3.921875 -0.6875 3.921875 -0.75 L 3.921875 -2.734375 C 3.921875 -3.140625 3.921875 -3.53125 3.5625 -3.90625 C 3.171875 -4.28125 2.671875 -4.4375 2.203125 -4.4375 C 1.390625 -4.4375 0.703125 -3.984375 0.703125 -3.328125 C 0.703125 -3.03125 0.90625 -2.859375 1.15625 -2.859375 C 1.4375 -2.859375 1.625 -3.0625 1.625 -3.3125 C 1.625 -3.4375 1.5625 -3.765625 1.109375 -3.765625 C 1.375 -4.125 1.859375 -4.234375 2.1875 -4.234375 C 2.671875 -4.234375 3.234375 -3.84375 3.234375 -2.953125 L 3.234375 -2.59375 C 2.734375 -2.5625 2.03125 -2.53125 1.40625 -2.234375 C 0.671875 -1.890625 0.421875 -1.375 0.421875 -0.9375 C 0.421875 -0.140625 1.375 0.109375 2 0.109375 C 2.65625 0.109375 3.109375 -0.28125 3.296875 -0.75 Z M 3.234375 -2.375 L 3.234375 -1.390625 C 3.234375 -0.453125 2.515625 -0.109375 2.078125 -0.109375 C 1.59375 -0.109375 1.1875 -0.453125 1.1875 -0.953125 C 1.1875 -1.5 1.59375 -2.328125 3.234375 -2.375 Z M 3.234375 -2.375 "/>
</g>
<g id="glyph-2-4">
<path d="M 1.09375 -3.40625 L 1.09375 -0.75 C 1.09375 -0.3125 0.984375 -0.3125 0.3125 -0.3125 L 0.3125 0 C 0.671875 -0.015625 1.171875 -0.03125 1.4375 -0.03125 C 1.703125 -0.03125 2.21875 -0.015625 2.546875 0 L 2.546875 -0.3125 C 1.890625 -0.3125 1.78125 -0.3125 1.78125 -0.75 L 1.78125 -2.578125 C 1.78125 -3.609375 2.484375 -4.171875 3.109375 -4.171875 C 3.734375 -4.171875 3.84375 -3.625 3.84375 -3.0625 L 3.84375 -0.75 C 3.84375 -0.3125 3.734375 -0.3125 3.078125 -0.3125 L 3.078125 0 C 3.421875 -0.015625 3.921875 -0.03125 4.203125 -0.03125 C 4.453125 -0.03125 4.96875 -0.015625 5.3125 0 L 5.3125 -0.3125 C 4.796875 -0.3125 4.546875 -0.3125 4.53125 -0.609375 L 4.53125 -2.5 C 4.53125 -3.359375 4.53125 -3.65625 4.234375 -4.015625 C 4.09375 -4.1875 3.765625 -4.390625 3.1875 -4.390625 C 2.453125 -4.390625 2 -3.953125 1.71875 -3.34375 L 1.71875 -4.390625 L 0.3125 -4.28125 L 0.3125 -3.96875 C 1.015625 -3.96875 1.09375 -3.90625 1.09375 -3.40625 Z M 1.09375 -3.40625 "/>
</g>
<g id="glyph-2-5">
<path d="M 1.15625 -2.15625 C 1.15625 -3.78125 1.96875 -4.203125 2.5 -4.203125 C 2.59375 -4.203125 3.21875 -4.1875 3.5625 -3.828125 C 3.15625 -3.796875 3.09375 -3.5 3.09375 -3.375 C 3.09375 -3.109375 3.28125 -2.921875 3.546875 -2.921875 C 3.8125 -2.921875 4.015625 -3.078125 4.015625 -3.390625 C 4.015625 -4.0625 3.25 -4.4375 2.484375 -4.4375 C 1.25 -4.4375 0.34375 -3.375 0.34375 -2.140625 C 0.34375 -0.875 1.3125 0.109375 2.46875 0.109375 C 3.796875 0.109375 4.125 -1.078125 4.125 -1.1875 C 4.125 -1.28125 4.015625 -1.28125 3.984375 -1.28125 C 3.90625 -1.28125 3.875 -1.234375 3.859375 -1.1875 C 3.578125 -0.265625 2.921875 -0.140625 2.5625 -0.140625 C 2.03125 -0.140625 1.15625 -0.5625 1.15625 -2.15625 Z M 1.15625 -2.15625 "/>
</g>
<g id="glyph-2-6">
<path d="M 1.09375 -0.75 C 1.09375 -0.3125 0.984375 -0.3125 0.3125 -0.3125 L 0.3125 0 C 0.671875 -0.015625 1.171875 -0.03125 1.4375 -0.03125 C 1.703125 -0.03125 2.21875 -0.015625 2.546875 0 L 2.546875 -0.3125 C 1.890625 -0.3125 1.78125 -0.3125 1.78125 -0.75 L 1.78125 -2.578125 C 1.78125 -3.609375 2.484375 -4.171875 3.109375 -4.171875 C 3.734375 -4.171875 3.84375 -3.625 3.84375 -3.0625 L 3.84375 -0.75 C 3.84375 -0.3125 3.734375 -0.3125 3.078125 -0.3125 L 3.078125 0 C 3.421875 -0.015625 3.921875 -0.03125 4.203125 -0.03125 C 4.453125 -0.03125 4.96875 -0.015625 5.3125 0 L 5.3125 -0.3125 C 4.796875 -0.3125 4.546875 -0.3125 4.53125 -0.609375 L 4.53125 -2.5 C 4.53125 -3.359375 4.53125 -3.65625 4.234375 -4.015625 C 4.09375 -4.1875 3.765625 -4.390625 3.1875 -4.390625 C 2.34375 -4.390625 1.921875 -3.796875 1.75 -3.40625 L 1.75 -6.890625 L 0.3125 -6.78125 L 0.3125 -6.46875 C 1.015625 -6.46875 1.09375 -6.40625 1.09375 -5.90625 Z M 1.09375 -0.75 "/>
</g>
<g id="glyph-2-7">
<path d="M 1.71875 -3.96875 L 3.140625 -3.96875 L 3.140625 -4.28125 L 1.71875 -4.28125 L 1.71875 -6.109375 L 1.46875 -6.109375 C 1.453125 -5.28125 1.15625 -4.234375 0.1875 -4.1875 L 0.1875 -3.96875 L 1.03125 -3.96875 L 1.03125 -1.234375 C 1.03125 -0.015625 1.953125 0.109375 2.3125 0.109375 C 3.015625 0.109375 3.296875 -0.59375 3.296875 -1.234375 L 3.296875 -1.796875 L 3.046875 -1.796875 L 3.046875 -1.25 C 3.046875 -0.515625 2.75 -0.140625 2.375 -0.140625 C 1.71875 -0.140625 1.71875 -1.046875 1.71875 -1.203125 Z M 1.71875 -3.96875 "/>
</g>
<g id="glyph-2-8">
<path d="M 2.203125 -1.703125 C 1.34375 -1.703125 1.34375 -2.703125 1.34375 -2.921875 C 1.34375 -3.1875 1.34375 -3.515625 1.5 -3.765625 C 1.578125 -3.875 1.8125 -4.15625 2.203125 -4.15625 C 3.0625 -4.15625 3.0625 -3.171875 3.0625 -2.9375 C 3.0625 -2.671875 3.0625 -2.34375 2.90625 -2.109375 C 2.828125 -1.984375 2.59375 -1.703125 2.203125 -1.703125 Z M 1.046875 -1.3125 C 1.046875 -1.359375 1.046875 -1.59375 1.21875 -1.78125 C 1.609375 -1.515625 2.015625 -1.484375 2.203125 -1.484375 C 3.125 -1.484375 3.8125 -2.15625 3.8125 -2.921875 C 3.8125 -3.296875 3.65625 -3.65625 3.40625 -3.890625 C 3.765625 -4.234375 4.125 -4.28125 4.296875 -4.28125 C 4.3125 -4.28125 4.359375 -4.28125 4.390625 -4.265625 C 4.28125 -4.234375 4.234375 -4.125 4.234375 -4 C 4.234375 -3.828125 4.359375 -3.703125 4.53125 -3.703125 C 4.625 -3.703125 4.8125 -3.78125 4.8125 -4.015625 C 4.8125 -4.171875 4.6875 -4.5 4.3125 -4.5 C 4.109375 -4.5 3.671875 -4.4375 3.25 -4.03125 C 2.84375 -4.359375 2.421875 -4.390625 2.203125 -4.390625 C 1.28125 -4.390625 0.59375 -3.703125 0.59375 -2.9375 C 0.59375 -2.5 0.8125 -2.125 1.0625 -1.921875 C 0.9375 -1.765625 0.75 -1.4375 0.75 -1.09375 C 0.75 -0.78125 0.890625 -0.40625 1.1875 -0.203125 C 0.59375 -0.046875 0.28125 0.390625 0.28125 0.78125 C 0.28125 1.5 1.265625 2.046875 2.46875 2.046875 C 3.640625 2.046875 4.671875 1.53125 4.671875 0.765625 C 4.671875 0.421875 4.53125 -0.09375 4.03125 -0.359375 C 3.5 -0.640625 2.921875 -0.640625 2.328125 -0.640625 C 2.078125 -0.640625 1.640625 -0.640625 1.578125 -0.65625 C 1.265625 -0.6875 1.046875 -1 1.046875 -1.3125 Z M 2.484375 1.8125 C 1.484375 1.8125 0.796875 1.3125 0.796875 0.78125 C 0.796875 0.328125 1.171875 -0.046875 1.609375 -0.0625 L 2.1875 -0.0625 C 3.046875 -0.0625 4.15625 -0.0625 4.15625 0.78125 C 4.15625 1.3125 3.453125 1.8125 2.484375 1.8125 Z M 2.484375 1.8125 "/>
</g>
<g id="glyph-2-9">
<path d="M 1.109375 -2.5 C 1.171875 -3.984375 2 -4.234375 2.34375 -4.234375 C 3.359375 -4.234375 3.46875 -2.890625 3.46875 -2.5 Z M 1.09375 -2.296875 L 3.875 -2.296875 C 4.09375 -2.296875 4.125 -2.296875 4.125 -2.5 C 4.125 -3.484375 3.578125 -4.4375 2.34375 -4.4375 C 1.1875 -4.4375 0.28125 -3.421875 0.28125 -2.1875 C 0.28125 -0.859375 1.3125 0.109375 2.453125 0.109375 C 3.671875 0.109375 4.125 -0.984375 4.125 -1.1875 C 4.125 -1.28125 4.03125 -1.296875 3.984375 -1.296875 C 3.90625 -1.296875 3.875 -1.234375 3.859375 -1.15625 C 3.515625 -0.140625 2.625 -0.140625 2.515625 -0.140625 C 2.03125 -0.140625 1.625 -0.4375 1.40625 -0.796875 C 1.09375 -1.28125 1.09375 -1.9375 1.09375 -2.296875 Z M 1.09375 -2.296875 "/>
</g>
<g id="glyph-2-10">
<path d="M 1.65625 -3.296875 L 1.65625 -4.390625 L 0.28125 -4.28125 L 0.28125 -3.96875 C 0.96875 -3.96875 1.046875 -3.90625 1.046875 -3.40625 L 1.046875 -0.75 C 1.046875 -0.3125 0.9375 -0.3125 0.28125 -0.3125 L 0.28125 0 C 0.671875 -0.015625 1.125 -0.03125 1.40625 -0.03125 C 1.8125 -0.03125 2.265625 -0.03125 2.671875 0 L 2.671875 -0.3125 L 2.453125 -0.3125 C 1.71875 -0.3125 1.703125 -0.421875 1.703125 -0.78125 L 1.703125 -2.296875 C 1.703125 -3.28125 2.125 -4.171875 2.875 -4.171875 C 2.953125 -4.171875 2.96875 -4.171875 2.984375 -4.15625 C 2.953125 -4.140625 2.765625 -4.03125 2.765625 -3.765625 C 2.765625 -3.5 2.96875 -3.34375 3.1875 -3.34375 C 3.359375 -3.34375 3.609375 -3.46875 3.609375 -3.78125 C 3.609375 -4.09375 3.296875 -4.390625 2.875 -4.390625 C 2.15625 -4.390625 1.796875 -3.71875 1.65625 -3.296875 Z M 1.65625 -3.296875 "/>
</g>
<g id="glyph-2-11">
<path d="M 4.671875 -2.125 C 4.671875 -3.390625 3.6875 -4.4375 2.484375 -4.4375 C 1.234375 -4.4375 0.28125 -3.359375 0.28125 -2.125 C 0.28125 -0.84375 1.3125 0.109375 2.46875 0.109375 C 3.671875 0.109375 4.671875 -0.859375 4.671875 -2.125 Z M 2.484375 -0.140625 C 2.046875 -0.140625 1.625 -0.34375 1.34375 -0.796875 C 1.09375 -1.234375 1.09375 -1.84375 1.09375 -2.203125 C 1.09375 -2.59375 1.09375 -3.125 1.34375 -3.5625 C 1.609375 -4.015625 2.078125 -4.234375 2.46875 -4.234375 C 2.90625 -4.234375 3.328125 -4.015625 3.59375 -3.578125 C 3.84375 -3.15625 3.84375 -2.578125 3.84375 -2.203125 C 3.84375 -1.84375 3.84375 -1.3125 3.625 -0.875 C 3.40625 -0.421875 2.96875 -0.140625 2.484375 -0.140625 Z M 2.484375 -0.140625 "/>
</g>
<g id="glyph-2-12">
<path d="M 1.75 -6.890625 L 0.328125 -6.78125 L 0.328125 -6.46875 C 1.015625 -6.46875 1.09375 -6.40625 1.09375 -5.90625 L 1.09375 -0.75 C 1.09375 -0.3125 0.984375 -0.3125 0.328125 -0.3125 L 0.328125 0 C 0.65625 -0.015625 1.1875 -0.03125 1.421875 -0.03125 C 1.671875 -0.03125 2.15625 -0.015625 2.53125 0 L 2.53125 -0.3125 C 1.859375 -0.3125 1.75 -0.3125 1.75 -0.75 Z M 1.75 -6.890625 "/>
</g>
<g id="glyph-2-13">
<path d="M 3.765625 -0.546875 L 3.765625 0.109375 L 5.234375 0 L 5.234375 -0.3125 C 4.53125 -0.3125 4.453125 -0.375 4.453125 -0.859375 L 4.453125 -6.890625 L 3.03125 -6.78125 L 3.03125 -6.46875 C 3.71875 -6.46875 3.796875 -6.40625 3.796875 -5.90625 L 3.796875 -3.765625 C 3.515625 -4.125 3.078125 -4.390625 2.546875 -4.390625 C 1.375 -4.390625 0.34375 -3.40625 0.34375 -2.140625 C 0.34375 -0.875 1.3125 0.109375 2.4375 0.109375 C 3.078125 0.109375 3.515625 -0.234375 3.765625 -0.546875 Z M 3.765625 -3.203125 L 3.765625 -1.171875 C 3.765625 -0.984375 3.765625 -0.96875 3.65625 -0.796875 C 3.359375 -0.328125 2.921875 -0.109375 2.484375 -0.109375 C 2.046875 -0.109375 1.6875 -0.359375 1.453125 -0.75 C 1.1875 -1.15625 1.15625 -1.71875 1.15625 -2.125 C 1.15625 -2.484375 1.1875 -3.078125 1.46875 -3.53125 C 1.671875 -3.84375 2.046875 -4.171875 2.59375 -4.171875 C 2.9375 -4.171875 3.359375 -4.015625 3.65625 -3.578125 C 3.765625 -3.40625 3.765625 -3.390625 3.765625 -3.203125 Z M 3.765625 -3.203125 "/>
</g>
<g id="glyph-3-0">
<path d="M 2.8125 -6.203125 C 2.8125 -6.40625 2.671875 -6.5625 2.453125 -6.5625 C 2.1875 -6.5625 1.921875 -6.296875 1.921875 -6.03125 C 1.921875 -5.84375 2.046875 -5.671875 2.296875 -5.671875 C 2.515625 -5.671875 2.8125 -5.90625 2.8125 -6.203125 Z M 2.0625 -2.46875 C 2.1875 -2.765625 2.1875 -2.78125 2.28125 -3.046875 C 2.359375 -3.25 2.40625 -3.390625 2.40625 -3.578125 C 2.40625 -4.015625 2.09375 -4.390625 1.59375 -4.390625 C 0.671875 -4.390625 0.28125 -2.953125 0.28125 -2.859375 C 0.28125 -2.765625 0.390625 -2.765625 0.40625 -2.765625 C 0.5 -2.765625 0.515625 -2.78125 0.5625 -2.9375 C 0.828125 -3.875 1.234375 -4.171875 1.5625 -4.171875 C 1.640625 -4.171875 1.8125 -4.171875 1.8125 -3.84375 C 1.8125 -3.640625 1.75 -3.4375 1.703125 -3.328125 C 1.625 -3.078125 1.1875 -1.921875 1.015625 -1.5 C 0.921875 -1.234375 0.796875 -0.90625 0.796875 -0.703125 C 0.796875 -0.234375 1.125 0.109375 1.609375 0.109375 C 2.546875 0.109375 2.90625 -1.328125 2.90625 -1.421875 C 2.90625 -1.515625 2.8125 -1.515625 2.78125 -1.515625 C 2.6875 -1.515625 2.6875 -1.484375 2.640625 -1.34375 C 2.453125 -0.71875 2.140625 -0.109375 1.625 -0.109375 C 1.453125 -0.109375 1.390625 -0.203125 1.390625 -0.4375 C 1.390625 -0.6875 1.453125 -0.828125 1.671875 -1.421875 Z M 2.0625 -2.46875 "/>
</g>
<g id="glyph-3-1">
<path d="M 3.9375 -6.203125 C 3.9375 -6.390625 3.796875 -6.5625 3.5625 -6.5625 C 3.328125 -6.5625 3.03125 -6.328125 3.03125 -6.03125 C 3.03125 -5.828125 3.171875 -5.671875 3.40625 -5.671875 C 3.671875 -5.671875 3.9375 -5.9375 3.9375 -6.203125 Z M 1.9375 0.5 C 1.75 1.25 1.28125 1.8125 0.71875 1.8125 C 0.671875 1.8125 0.515625 1.8125 0.34375 1.71875 C 0.640625 1.65625 0.78125 1.40625 0.78125 1.203125 C 0.78125 1.046875 0.671875 0.859375 0.40625 0.859375 C 0.15625 0.859375 -0.125 1.0625 -0.125 1.421875 C -0.125 1.8125 0.265625 2.03125 0.75 2.03125 C 1.4375 2.03125 2.359375 1.515625 2.609375 0.53125 L 3.515625 -3.109375 C 3.578125 -3.296875 3.578125 -3.4375 3.578125 -3.46875 C 3.578125 -4.03125 3.15625 -4.390625 2.65625 -4.390625 C 1.640625 -4.390625 1.078125 -2.953125 1.078125 -2.859375 C 1.078125 -2.765625 1.1875 -2.765625 1.203125 -2.765625 C 1.296875 -2.765625 1.296875 -2.765625 1.375 -2.953125 C 1.625 -3.5625 2.078125 -4.171875 2.625 -4.171875 C 2.765625 -4.171875 2.953125 -4.125 2.953125 -3.703125 C 2.953125 -3.484375 2.921875 -3.375 2.875 -3.203125 Z M 1.9375 0.5 "/>
</g>
<g id="glyph-3-2">
<path d="M 2.84375 -6.78125 C 2.84375 -6.78125 2.84375 -6.890625 2.71875 -6.890625 C 2.484375 -6.890625 1.765625 -6.8125 1.515625 -6.78125 C 1.421875 -6.78125 1.3125 -6.765625 1.3125 -6.59375 C 1.3125 -6.46875 1.40625 -6.46875 1.5625 -6.46875 C 2.03125 -6.46875 2.046875 -6.40625 2.046875 -6.296875 L 2.03125 -6.109375 L 0.578125 -0.390625 C 0.546875 -0.25 0.546875 -0.234375 0.546875 -0.171875 C 0.546875 0.0625 0.75 0.109375 0.828125 0.109375 C 0.96875 0.109375 1.109375 0.015625 1.171875 -0.09375 C 1.21875 -0.1875 1.671875 -2.03125 1.71875 -2.265625 C 2.0625 -2.25 2.875 -2.078125 2.875 -1.421875 C 2.875 -1.359375 2.875 -1.3125 2.84375 -1.21875 C 2.828125 -1.09375 2.8125 -0.984375 2.8125 -0.875 C 2.8125 -0.28125 3.203125 0.109375 3.71875 0.109375 C 4.015625 0.109375 4.28125 -0.046875 4.5 -0.421875 C 4.75 -0.859375 4.859375 -1.40625 4.859375 -1.421875 C 4.859375 -1.515625 4.765625 -1.515625 4.75 -1.515625 C 4.640625 -1.515625 4.640625 -1.484375 4.609375 -1.34375 C 4.40625 -0.609375 4.171875 -0.109375 3.734375 -0.109375 C 3.546875 -0.109375 3.421875 -0.21875 3.421875 -0.578125 C 3.421875 -0.75 3.46875 -0.96875 3.5 -1.125 C 3.546875 -1.296875 3.546875 -1.34375 3.546875 -1.4375 C 3.546875 -2.078125 2.921875 -2.375 2.078125 -2.484375 C 2.375 -2.65625 2.703125 -2.96875 2.921875 -3.21875 C 3.40625 -3.734375 3.859375 -4.171875 4.34375 -4.171875 C 4.40625 -4.171875 4.421875 -4.171875 4.4375 -4.15625 C 4.546875 -4.140625 4.5625 -4.140625 4.640625 -4.078125 C 4.65625 -4.0625 4.65625 -4.0625 4.6875 -4.03125 C 4.203125 -4.015625 4.125 -3.625 4.125 -3.5 C 4.125 -3.34375 4.234375 -3.15625 4.5 -3.15625 C 4.75 -3.15625 5.046875 -3.375 5.046875 -3.765625 C 5.046875 -4.0625 4.8125 -4.390625 4.359375 -4.390625 C 4.09375 -4.390625 3.625 -4.3125 2.921875 -3.515625 C 2.578125 -3.140625 2.1875 -2.734375 1.8125 -2.59375 Z M 2.84375 -6.78125 "/>
</g>
<g id="glyph-3-3">
<path d="M 2.84375 -6.78125 C 2.84375 -6.78125 2.84375 -6.890625 2.71875 -6.890625 C 2.484375 -6.890625 1.765625 -6.8125 1.515625 -6.78125 C 1.421875 -6.78125 1.3125 -6.765625 1.3125 -6.59375 C 1.3125 -6.46875 1.40625 -6.46875 1.5625 -6.46875 C 2.03125 -6.46875 2.046875 -6.40625 2.046875 -6.296875 L 2.03125 -6.109375 L 0.578125 -0.390625 C 0.546875 -0.25 0.546875 -0.234375 0.546875 -0.171875 C 0.546875 0.0625 0.75 0.109375 0.828125 0.109375 C 0.984375 0.109375 1.15625 -0.015625 1.203125 -0.15625 L 1.390625 -0.90625 L 1.609375 -1.796875 C 1.671875 -2.015625 1.71875 -2.234375 1.78125 -2.453125 C 1.796875 -2.515625 1.875 -2.84375 1.890625 -2.90625 C 1.921875 -3 2.21875 -3.546875 2.5625 -3.8125 C 2.78125 -3.984375 3.078125 -4.171875 3.515625 -4.171875 C 3.9375 -4.171875 4.046875 -3.828125 4.046875 -3.46875 C 4.046875 -2.9375 3.671875 -1.859375 3.4375 -1.25 C 3.359375 -1.015625 3.296875 -0.90625 3.296875 -0.703125 C 3.296875 -0.234375 3.65625 0.109375 4.125 0.109375 C 5.046875 0.109375 5.421875 -1.34375 5.421875 -1.421875 C 5.421875 -1.515625 5.328125 -1.515625 5.296875 -1.515625 C 5.203125 -1.515625 5.203125 -1.484375 5.15625 -1.34375 C 5 -0.8125 4.6875 -0.109375 4.140625 -0.109375 C 3.96875 -0.109375 3.90625 -0.203125 3.90625 -0.4375 C 3.90625 -0.6875 3.984375 -0.921875 4.078125 -1.140625 C 4.234375 -1.5625 4.6875 -2.75 4.6875 -3.328125 C 4.6875 -3.96875 4.28125 -4.390625 3.546875 -4.390625 C 2.921875 -4.390625 2.4375 -4.078125 2.078125 -3.625 Z M 2.84375 -6.78125 "/>
</g>
<g id="glyph-3-4">
<path d="M 4.671875 -3.734375 C 4.6875 -3.796875 4.703125 -3.84375 4.703125 -3.921875 C 4.703125 -4.09375 4.578125 -4.1875 4.421875 -4.1875 C 4.3125 -4.1875 4.046875 -4.125 4.015625 -3.765625 C 3.828125 -4.125 3.484375 -4.390625 3.078125 -4.390625 C 1.953125 -4.390625 0.71875 -3 0.71875 -1.5625 C 0.71875 -0.578125 1.328125 0 2.046875 0 C 2.625 0 3.09375 -0.46875 3.1875 -0.578125 L 3.203125 -0.5625 C 3 0.3125 2.875 0.71875 2.875 0.75 C 2.84375 0.828125 2.5 1.8125 1.453125 1.8125 C 1.265625 1.8125 0.9375 1.8125 0.65625 1.71875 C 0.953125 1.625 1.0625 1.375 1.0625 1.203125 C 1.0625 1.046875 0.953125 0.859375 0.6875 0.859375 C 0.46875 0.859375 0.15625 1.03125 0.15625 1.421875 C 0.15625 1.828125 0.515625 2.03125 1.46875 2.03125 C 2.703125 2.03125 3.421875 1.265625 3.578125 0.671875 Z M 3.390625 -1.265625 C 3.328125 -1.015625 3.09375 -0.765625 2.875 -0.578125 C 2.671875 -0.390625 2.359375 -0.21875 2.078125 -0.21875 C 1.578125 -0.21875 1.421875 -0.734375 1.421875 -1.125 C 1.421875 -1.609375 1.71875 -2.78125 1.984375 -3.28125 C 2.25 -3.765625 2.671875 -4.171875 3.09375 -4.171875 C 3.75 -4.171875 3.890625 -3.359375 3.890625 -3.3125 C 3.890625 -3.265625 3.875 -3.203125 3.859375 -3.171875 Z M 3.390625 -1.265625 "/>
</g>
<g id="glyph-3-5">
<path d="M 5.125 -6.78125 C 5.125 -6.78125 5.125 -6.890625 4.984375 -6.890625 C 4.84375 -6.890625 3.90625 -6.796875 3.734375 -6.78125 C 3.65625 -6.765625 3.59375 -6.71875 3.59375 -6.59375 C 3.59375 -6.46875 3.6875 -6.46875 3.828125 -6.46875 C 4.3125 -6.46875 4.328125 -6.40625 4.328125 -6.296875 L 4.296875 -6.109375 L 3.703125 -3.75 C 3.515625 -4.125 3.234375 -4.390625 2.78125 -4.390625 C 1.625 -4.390625 0.390625 -2.921875 0.390625 -1.484375 C 0.390625 -0.546875 0.9375 0.109375 1.71875 0.109375 C 1.921875 0.109375 2.40625 0.0625 3 -0.640625 C 3.078125 -0.21875 3.4375 0.109375 3.90625 0.109375 C 4.25 0.109375 4.484375 -0.125 4.640625 -0.4375 C 4.8125 -0.796875 4.9375 -1.40625 4.9375 -1.421875 C 4.9375 -1.515625 4.859375 -1.515625 4.828125 -1.515625 C 4.71875 -1.515625 4.71875 -1.484375 4.6875 -1.34375 C 4.515625 -0.6875 4.328125 -0.109375 3.921875 -0.109375 C 3.65625 -0.109375 3.625 -0.359375 3.625 -0.5625 C 3.625 -0.796875 3.65625 -0.875 3.6875 -1.046875 Z M 3.0625 -1.1875 C 3 -1 3 -0.984375 2.859375 -0.8125 C 2.421875 -0.265625 2.015625 -0.109375 1.734375 -0.109375 C 1.234375 -0.109375 1.09375 -0.65625 1.09375 -1.046875 C 1.09375 -1.53125 1.421875 -2.765625 1.640625 -3.21875 C 1.953125 -3.796875 2.40625 -4.171875 2.796875 -4.171875 C 3.4375 -4.171875 3.578125 -3.359375 3.578125 -3.296875 C 3.578125 -3.234375 3.5625 -3.171875 3.546875 -3.125 Z M 3.0625 -1.1875 "/>
</g>
</g>
<clipPath id="clip-0">
<path clip-rule="nonzero" d="M 71 79 L 89 79 L 89 143.917969 L 71 143.917969 Z M 71 79 "/>
</clipPath>
<clipPath id="clip-1">
<path clip-rule="nonzero" d="M 120 1 L 135 1 L 135 8.898438 L 120 8.898438 Z M 120 1 "/>
</clipPath>
<clipPath id="clip-2">
<path clip-rule="nonzero" d="M 138 1 L 141 1 L 141 8.898438 L 138 8.898438 Z M 138 1 "/>
</clipPath>
</defs>
<path fill-rule="evenodd" fill="rgb(0%, 0%, 0%)" fill-opacity="1" d="M 133.492188 19.855469 C 133.492188 18.867188 132.6875 18.0625 131.699219 18.0625 C 130.707031 18.0625 129.902344 18.867188 129.902344 19.855469 C 129.902344 20.847656 130.707031 21.648438 131.699219 21.648438 C 132.6875 21.648438 133.492188 20.847656 133.492188 19.855469 "/>
<path fill-rule="evenodd" fill="rgb(0%, 0%, 0%)" fill-opacity="1" d="M 133.492188 35.796875 C 133.492188 34.804688 132.6875 34 131.699219 34 C 130.707031 34 129.902344 34.804688 129.902344 35.796875 C 129.902344 36.785156 130.707031 37.589844 131.699219 37.589844 C 132.6875 37.589844 133.492188 36.785156 133.492188 35.796875 "/>
<path fill-rule="evenodd" fill="rgb(0%, 0%, 0%)" fill-opacity="1" d="M 133.492188 51.734375 C 133.492188 50.742188 132.6875 49.941406 131.699219 49.941406 C 130.707031 49.941406 129.902344 50.742188 129.902344 51.734375 C 129.902344 52.722656 130.707031 53.527344 131.699219 53.527344 C 132.6875 53.527344 133.492188 52.722656 133.492188 51.734375 "/>
<path fill-rule="evenodd" fill="rgb(0%, 0%, 0%)" fill-opacity="1" d="M 133.492188 67.671875 C 133.492188 66.683594 132.6875 65.878906 131.699219 65.878906 C 130.707031 65.878906 129.902344 66.683594 129.902344 67.671875 C 129.902344 68.664062 130.707031 69.464844 131.699219 69.464844 C 132.6875 69.464844 133.492188 68.664062 133.492188 67.671875 "/>
<path fill="none" stroke-width="0.4" stroke-linecap="butt" stroke-linejoin="round" stroke="rgb(0%, 0%, 0%)" stroke-opacity="1" stroke-miterlimit="10" d="M 192.001841 800.000416 L 147.998606 800.000416 " transform="matrix(0.996198, 0, 0, -0.996198, -59.572644, 816.814337)"/>
<path fill="none" stroke-width="0.4" stroke-linecap="butt" stroke-linejoin="round" stroke="rgb(0%, 0%, 0%)" stroke-opacity="1" stroke-miterlimit="10" d="M 192.001841 783.99817 L 147.998606 783.99817 " transform="matrix(0.996198, 0, 0, -0.996198, -59.572644, 816.814337)"/>
<path fill="none" stroke-width="0.4" stroke-linecap="butt" stroke-linejoin="round" stroke="rgb(0%, 0%, 0%)" stroke-opacity="1" stroke-miterlimit="10" d="M 192.001841 767.999845 L 147.998606 767.999845 " transform="matrix(0.996198, 0, 0, -0.996198, -59.572644, 816.814337)"/>
<path fill="none" stroke-width="0.4" stroke-linecap="butt" stroke-linejoin="round" stroke="rgb(0%, 0%, 0%)" stroke-opacity="1" stroke-miterlimit="10" d="M 192.001841 752.001521 L 147.998606 752.001521 " transform="matrix(0.996198, 0, 0, -0.996198, -59.572644, 816.814337)"/>
<path fill="none" stroke-width="0.4" stroke-linecap="butt" stroke-linejoin="round" stroke="rgb(0%, 0%, 0%)" stroke-opacity="1" stroke-miterlimit="10" d="M 147.998606 803.999997 L 147.998606 748.00194 L 132.000282 748.00194 L 132.000282 803.999997 Z M 147.998606 803.999997 " transform="matrix(0.996198, 0, 0, -0.996198, -59.572644, 816.814337)"/>
<g fill="rgb(0%, 0%, 0%)" fill-opacity="1">
<use xlink:href="#glyph-0-0" x="82.338759" y="55.254785"/>
<use xlink:href="#glyph-0-1" x="82.338759" y="52.497697"/>
<use xlink:href="#glyph-0-2" x="82.338759" y="49.740609"/>
<use xlink:href="#glyph-0-3" x="82.338759" y="44.226433"/>
</g>
<g fill="rgb(0%, 0%, 0%)" fill-opacity="1">
<use xlink:href="#glyph-1-0" x="82.338759" y="36.50833"/>
</g>
<g clip-path="url(#clip-0)">
<path fill="none" stroke-width="0.4" stroke-linecap="butt" stroke-linejoin="round" stroke="rgb(0%, 0%, 0%)" stroke-opacity="1" stroke-miterlimit="10" d="M 147.998606 739.998856 L 147.998606 676.001637 L 132.000282 676.001637 L 132.000282 739.998856 Z M 147.998606 739.998856 " transform="matrix(0.996198, 0, 0, -0.996198, -59.572644, 816.814337)"/>
</g>
<g fill="rgb(0%, 0%, 0%)" fill-opacity="1">
<use xlink:href="#glyph-0-4" x="82.338759" y="142.920215"/>
<use xlink:href="#glyph-0-5" x="82.338759" y="139.06049"/>
<use xlink:href="#glyph-0-6" x="82.338759" y="135.172976"/>
<use xlink:href="#glyph-0-2" x="82.338759" y="130.210615"/>
<use xlink:href="#glyph-0-7" x="82.338759" y="124.696439"/>
<use xlink:href="#glyph-0-8" x="82.338759" y="120.782128"/>
<use xlink:href="#glyph-0-9" x="82.338759" y="117.749133"/>
<use xlink:href="#glyph-0-5" x="82.338759" y="112.786771"/>
<use xlink:href="#glyph-0-10" x="82.338759" y="108.899257"/>
<use xlink:href="#glyph-0-3" x="82.338759" y="100.628986"/>
<use xlink:href="#glyph-0-5" x="82.338759" y="96.218439"/>
</g>
<g fill="rgb(0%, 0%, 0%)" fill-opacity="1">
<use xlink:href="#glyph-1-1" x="82.338759" y="89.022911"/>
</g>
<path fill="none" stroke-width="0.4" stroke-linecap="butt" stroke-linejoin="round" stroke="rgb(0%, 0%, 0%)" stroke-opacity="1" stroke-miterlimit="10" d="M 192.001841 800.000416 L 147.998606 731.999694 " transform="matrix(0.996198, 0, 0, -0.996198, -59.572644, 816.814337)"/>
<path fill="none" stroke-width="0.4" stroke-linecap="butt" stroke-linejoin="round" stroke="rgb(0%, 0%, 0%)" stroke-opacity="1" stroke-miterlimit="10" d="M 192.001841 783.99817 L 147.998606 716.001369 " transform="matrix(0.996198, 0, 0, -0.996198, -59.572644, 816.814337)"/>
<path fill="none" stroke-width="0.4" stroke-linecap="butt" stroke-linejoin="round" stroke="rgb(0%, 0%, 0%)" stroke-opacity="1" stroke-miterlimit="10" d="M 192.001841 767.999845 L 147.998606 699.999124 " transform="matrix(0.996198, 0, 0, -0.996198, -59.572644, 816.814337)"/>
<path fill="none" stroke-width="0.4" stroke-linecap="butt" stroke-linejoin="round" stroke="rgb(0%, 0%, 0%)" stroke-opacity="1" stroke-miterlimit="10" d="M 192.001841 752.001521 L 147.998606 684.000799 " transform="matrix(0.996198, 0, 0, -0.996198, -59.572644, 816.814337)"/>
<g clip-path="url(#clip-1)">
<g fill="rgb(0%, 0%, 0%)" fill-opacity="1">
<use xlink:href="#glyph-2-0" x="119.743008" y="7.901506"/>
<use xlink:href="#glyph-2-1" x="125.257184" y="7.901506"/>
<use xlink:href="#glyph-2-2" x="130.77136" y="7.901506"/>
</g>
</g>
<g clip-path="url(#clip-2)">
<g fill="rgb(0%, 0%, 0%)" fill-opacity="1">
<use xlink:href="#glyph-3-0" x="137.993356" y="7.901506"/>
</g>
</g>
<path fill="none" stroke-width="0.4" stroke-linecap="butt" stroke-linejoin="round" stroke="rgb(0%, 0%, 0%)" stroke-opacity="1" stroke-miterlimit="10" d="M 132.000282 800.000416 L 88.000968 800.000416 " transform="matrix(0.996198, 0, 0, -0.996198, -59.572644, 816.814337)"/>
<path fill="none" stroke-width="0.4" stroke-linecap="butt" stroke-linejoin="round" stroke="rgb(0%, 0%, 0%)" stroke-opacity="1" stroke-miterlimit="10" d="M 132.000282 783.99817 L 88.000968 783.99817 " transform="matrix(0.996198, 0, 0, -0.996198, -59.572644, 816.814337)"/>
<path fill="none" stroke-width="0.4" stroke-linecap="butt" stroke-linejoin="round" stroke="rgb(0%, 0%, 0%)" stroke-opacity="1" stroke-miterlimit="10" d="M 132.000282 767.999845 L 88.000968 767.999845 " transform="matrix(0.996198, 0, 0, -0.996198, -59.572644, 816.814337)"/>
<path fill="none" stroke-width="0.4" stroke-linecap="butt" stroke-linejoin="round" stroke="rgb(0%, 0%, 0%)" stroke-opacity="1" stroke-miterlimit="10" d="M 132.000282 752.001521 L 88.000968 752.001521 " transform="matrix(0.996198, 0, 0, -0.996198, -59.572644, 816.814337)"/>
<path fill="none" stroke-width="0.4" stroke-linecap="butt" stroke-linejoin="round" stroke="rgb(0%, 0%, 0%)" stroke-opacity="1" stroke-miterlimit="10" d="M 132.000282 731.999694 L 88.000968 731.999694 " transform="matrix(0.996198, 0, 0, -0.996198, -59.572644, 816.814337)"/>
<path fill="none" stroke-width="0.4" stroke-linecap="butt" stroke-linejoin="round" stroke="rgb(0%, 0%, 0%)" stroke-opacity="1" stroke-miterlimit="10" d="M 132.000282 716.001369 L 88.000968 716.001369 " transform="matrix(0.996198, 0, 0, -0.996198, -59.572644, 816.814337)"/>
<path fill="none" stroke-width="0.4" stroke-linecap="butt" stroke-linejoin="round" stroke="rgb(0%, 0%, 0%)" stroke-opacity="1" stroke-miterlimit="10" d="M 132.000282 699.999124 L 88.000968 699.999124 " transform="matrix(0.996198, 0, 0, -0.996198, -59.572644, 816.814337)"/>
<g fill="rgb(0%, 0%, 0%)" fill-opacity="1">
<use xlink:href="#glyph-2-0" x="24.107993" y="7.894533"/>
<use xlink:href="#glyph-2-1" x="29.622169" y="7.894533"/>
<use xlink:href="#glyph-2-2" x="35.136345" y="7.894533"/>
</g>
<g fill="rgb(0%, 0%, 0%)" fill-opacity="1">
<use xlink:href="#glyph-3-1" x="42.358342" y="7.894533"/>
</g>
<g fill="rgb(0%, 0%, 0%)" fill-opacity="1">
<use xlink:href="#glyph-2-0" x="20.123201" y="83.612559"/>
<use xlink:href="#glyph-2-1" x="25.637377" y="83.612559"/>
<use xlink:href="#glyph-2-2" x="31.151553" y="83.612559"/>
</g>
<g fill="rgb(0%, 0%, 0%)" fill-opacity="1">
<use xlink:href="#glyph-3-2" x="38.37355" y="83.612559"/>
</g>
<path fill="none" stroke-width="0.4" stroke-linecap="butt" stroke-linejoin="round" stroke="rgb(0%, 0%, 0%)" stroke-opacity="1" stroke-miterlimit="10" d="M 192.001841 752.001521 L 227.998071 752.001521 " transform="matrix(0.996198, 0, 0, -0.996198, -59.572644, 816.814337)"/>
<path fill="none" stroke-width="0.4" stroke-linecap="butt" stroke-linejoin="round" stroke="rgb(0%, 0%, 0%)" stroke-opacity="1" stroke-miterlimit="10" d="M 223.99849 743.998437 L 223.99849 735.999275 L 232.001574 735.999275 L 232.001574 743.998437 Z M 223.99849 743.998437 " transform="matrix(0.996198, 0, 0, -0.996198, -59.572644, 816.814337)"/>
<g fill="rgb(0%, 0%, 0%)" fill-opacity="1">
<use xlink:href="#glyph-3-3" x="164.701427" y="83.073616"/>
</g>
<path fill="none" stroke-width="0.4" stroke-linecap="butt" stroke-linejoin="round" stroke="rgb(0%, 0%, 0%)" stroke-opacity="1" stroke-miterlimit="10" d="M 211.999747 771.999427 L 211.999747 764.000264 L 219.998909 764.000264 L 219.998909 771.999427 Z M 211.999747 771.999427 " transform="matrix(0.996198, 0, 0, -0.996198, -59.572644, 816.814337)"/>
<g fill="rgb(0%, 0%, 0%)" fill-opacity="1">
<use xlink:href="#glyph-3-4" x="153.061848" y="52.906746"/>
</g>
<path fill="none" stroke-width="0.4" stroke-linecap="butt" stroke-linejoin="round" stroke="rgb(0%, 0%, 0%)" stroke-opacity="1" stroke-miterlimit="10" d="M 211.999747 796.000834 L 211.999747 788.001672 L 219.998909 788.001672 L 219.998909 796.000834 Z M 211.999747 796.000834 " transform="matrix(0.996198, 0, 0, -0.996198, -59.572644, 816.814337)"/>
<g fill="rgb(0%, 0%, 0%)" fill-opacity="1">
<use xlink:href="#glyph-3-5" x="153.022997" y="31.271316"/>
</g>
<g fill="rgb(0%, 0%, 0%)" fill-opacity="1">
<use xlink:href="#glyph-2-3" x="129.216851" y="15.871091"/>
</g>
<g fill="rgb(0%, 0%, 0%)" fill-opacity="1">
<use xlink:href="#glyph-2-4" x="128.939908" y="63.688598"/>
</g>
<g fill="rgb(0%, 0%, 0%)" fill-opacity="1">
<use xlink:href="#glyph-2-0" x="128.939908" y="31.81026"/>
</g>
<g fill="rgb(0%, 0%, 0%)" fill-opacity="1">
<use xlink:href="#glyph-2-5" x="129.491802" y="47.749429"/>
</g>
<g fill="rgb(0%, 0%, 0%)" fill-opacity="1">
<use xlink:href="#glyph-2-2" x="135.682177" y="83.073616"/>
<use xlink:href="#glyph-2-6" x="139.596488" y="83.073616"/>
</g>
<g fill="rgb(0%, 0%, 0%)" fill-opacity="1">
<use xlink:href="#glyph-2-1" x="144.832771" y="83.073616"/>
<use xlink:href="#glyph-2-4" x="150.346947" y="83.073616"/>
</g>
<g fill="rgb(0%, 0%, 0%)" fill-opacity="1">
<use xlink:href="#glyph-2-7" x="155.583231" y="83.073616"/>
</g>
<g fill="rgb(0%, 0%, 0%)" fill-opacity="1">
<use xlink:href="#glyph-2-8" x="163.575723" y="53.822252"/>
<use xlink:href="#glyph-2-9" x="168.538084" y="53.822252"/>
<use xlink:href="#glyph-2-4" x="172.948631" y="53.822252"/>
<use xlink:href="#glyph-2-9" x="178.462807" y="53.822252"/>
<use xlink:href="#glyph-2-10" x="182.873354" y="53.822252"/>
<use xlink:href="#glyph-2-3" x="186.760868" y="53.822252"/>
<use xlink:href="#glyph-2-7" x="191.723229" y="53.822252"/>
<use xlink:href="#glyph-2-11" x="195.582954" y="53.822252"/>
<use xlink:href="#glyph-2-10" x="200.545315" y="53.822252"/>
</g>
<g fill="rgb(0%, 0%, 0%)" fill-opacity="1">
<use xlink:href="#glyph-2-12" x="163.575723" y="31.271316"/>
<use xlink:href="#glyph-2-11" x="166.332811" y="31.271316"/>
<use xlink:href="#glyph-2-3" x="171.295172" y="31.271316"/>
<use xlink:href="#glyph-2-13" x="176.257534" y="31.271316"/>
</g>
<path fill="none" stroke-width="0.4" stroke-linecap="butt" stroke-linejoin="round" stroke="rgb(0%, 0%, 0%)" stroke-opacity="1" stroke-miterlimit="10" d="M 192.001841 800.000416 L 160.001271 800.000416 " transform="matrix(0.996198, 0, 0, -0.996198, -59.572644, 816.814337)"/>
<path fill-rule="evenodd" fill="rgb(0%, 0%, 0%)" fill-opacity="1" stroke-width="0.4" stroke-linecap="butt" stroke-linejoin="round" stroke="rgb(0%, 0%, 0%)" stroke-opacity="1" stroke-miterlimit="10" d="M 160.001271 800.000416 L 167.000538 797.667327 L 167.000538 802.329583 Z M 160.001271 800.000416 " transform="matrix(0.996198, 0, 0, -0.996198, -59.572644, 816.814337)"/>
<path fill="none" stroke-width="0.4" stroke-linecap="butt" stroke-linejoin="round" stroke="rgb(0%, 0%, 0%)" stroke-opacity="1" stroke-miterlimit="10" d="M 192.001841 783.99817 L 160.001271 783.99817 " transform="matrix(0.996198, 0, 0, -0.996198, -59.572644, 816.814337)"/>
<path fill-rule="evenodd" fill="rgb(0%, 0%, 0%)" fill-opacity="1" stroke-width="0.4" stroke-linecap="butt" stroke-linejoin="round" stroke="rgb(0%, 0%, 0%)" stroke-opacity="1" stroke-miterlimit="10" d="M 160.001271 783.99817 L 167.000538 781.669002 L 167.000538 786.331259 Z M 160.001271 783.99817 " transform="matrix(0.996198, 0, 0, -0.996198, -59.572644, 816.814337)"/>
<path fill="none" stroke-width="0.4" stroke-linecap="butt" stroke-linejoin="round" stroke="rgb(0%, 0%, 0%)" stroke-opacity="1" stroke-miterlimit="10" d="M 192.001841 767.999845 L 160.001271 767.999845 " transform="matrix(0.996198, 0, 0, -0.996198, -59.572644, 816.814337)"/>
<path fill-rule="evenodd" fill="rgb(0%, 0%, 0%)" fill-opacity="1" stroke-width="0.4" stroke-linecap="butt" stroke-linejoin="round" stroke="rgb(0%, 0%, 0%)" stroke-opacity="1" stroke-miterlimit="10" d="M 160.001271 767.999845 L 167.000538 765.670678 L 167.000538 770.332934 Z M 160.001271 767.999845 " transform="matrix(0.996198, 0, 0, -0.996198, -59.572644, 816.814337)"/>
<path fill="none" stroke-width="0.4" stroke-linecap="butt" stroke-linejoin="round" stroke="rgb(0%, 0%, 0%)" stroke-opacity="1" stroke-miterlimit="10" d="M 192.001841 752.001521 L 160.001271 752.001521 " transform="matrix(0.996198, 0, 0, -0.996198, -59.572644, 816.814337)"/>
<path fill-rule="evenodd" fill="rgb(0%, 0%, 0%)" fill-opacity="1" stroke-width="0.4" stroke-linecap="butt" stroke-linejoin="round" stroke="rgb(0%, 0%, 0%)" stroke-opacity="1" stroke-miterlimit="10" d="M 160.001271 752.001521 L 167.000538 749.668432 L 167.000538 754.330689 Z M 160.001271 752.001521 " transform="matrix(0.996198, 0, 0, -0.996198, -59.572644, 816.814337)"/>
<path fill="none" stroke-width="0.4" stroke-linecap="butt" stroke-linejoin="round" stroke="rgb(0%, 0%, 0%)" stroke-opacity="1" stroke-miterlimit="10" d="M 192.001841 800.000416 L 173.662585 771.53673 " transform="matrix(0.996198, 0, 0, -0.996198, -59.572644, 816.814337)"/>
<path fill-rule="evenodd" fill="rgb(0%, 0%, 0%)" fill-opacity="1" stroke-width="0.4" stroke-linecap="butt" stroke-linejoin="round" stroke="rgb(0%, 0%, 0%)" stroke-opacity="1" stroke-miterlimit="10" d="M 173.662585 771.53673 L 179.411003 776.159775 L 175.493766 778.68108 Z M 173.662585 771.53673 " transform="matrix(0.996198, 0, 0, -0.996198, -59.572644, 816.814337)"/>
<path fill="none" stroke-width="0.4" stroke-linecap="butt" stroke-linejoin="round" stroke="rgb(0%, 0%, 0%)" stroke-opacity="1" stroke-miterlimit="10" d="M 192.001841 783.99817 L 173.662585 755.534484 " transform="matrix(0.996198, 0, 0, -0.996198, -59.572644, 816.814337)"/>
<path fill-rule="evenodd" fill="rgb(0%, 0%, 0%)" fill-opacity="1" stroke-width="0.4" stroke-linecap="butt" stroke-linejoin="round" stroke="rgb(0%, 0%, 0%)" stroke-opacity="1" stroke-miterlimit="10" d="M 173.662585 755.534484 L 179.411003 760.157529 L 175.493766 762.682755 Z M 173.662585 755.534484 " transform="matrix(0.996198, 0, 0, -0.996198, -59.572644, 816.814337)"/>
<path fill="none" stroke-width="0.4" stroke-linecap="butt" stroke-linejoin="round" stroke="rgb(0%, 0%, 0%)" stroke-opacity="1" stroke-miterlimit="10" d="M 192.001841 767.999845 L 173.662585 739.53616 " transform="matrix(0.996198, 0, 0, -0.996198, -59.572644, 816.814337)"/>
<path fill-rule="evenodd" fill="rgb(0%, 0%, 0%)" fill-opacity="1" stroke-width="0.4" stroke-linecap="butt" stroke-linejoin="round" stroke="rgb(0%, 0%, 0%)" stroke-opacity="1" stroke-miterlimit="10" d="M 173.662585 739.53616 L 179.411003 744.159205 L 175.493766 746.684431 Z M 173.662585 739.53616 " transform="matrix(0.996198, 0, 0, -0.996198, -59.572644, 816.814337)"/>
<path fill="none" stroke-width="0.4" stroke-linecap="butt" stroke-linejoin="round" stroke="rgb(0%, 0%, 0%)" stroke-opacity="1" stroke-miterlimit="10" d="M 192.001841 752.001521 L 173.662585 723.537835 " transform="matrix(0.996198, 0, 0, -0.996198, -59.572644, 816.814337)"/>
<path fill-rule="evenodd" fill="rgb(0%, 0%, 0%)" fill-opacity="1" stroke-width="0.4" stroke-linecap="butt" stroke-linejoin="round" stroke="rgb(0%, 0%, 0%)" stroke-opacity="1" stroke-miterlimit="10" d="M 173.662585 723.537835 L 179.411003 728.156959 L 175.493766 730.682185 Z M 173.662585 723.537835 " transform="matrix(0.996198, 0, 0, -0.996198, -59.572644, 816.814337)"/>
<path fill="none" stroke-width="0.4" stroke-linecap="butt" stroke-linejoin="round" stroke="rgb(0%, 0%, 0%)" stroke-opacity="1" stroke-miterlimit="10" d="M 227.998071 752.001521 L 227.998071 743.998437 " transform="matrix(0.996198, 0, 0, -0.996198, -59.572644, 816.814337)"/>
<path fill="none" stroke-width="0.4" stroke-linecap="butt" stroke-linejoin="round" stroke="rgb(0%, 0%, 0%)" stroke-opacity="1" stroke-miterlimit="10" d="M 227.998071 735.999275 L 227.998071 728.000113 " transform="matrix(0.996198, 0, 0, -0.996198, -59.572644, 816.814337)"/>
<path fill="none" stroke-width="0.4" stroke-linecap="butt" stroke-linejoin="round" stroke="rgb(0%, 0%, 0%)" stroke-opacity="1" stroke-miterlimit="10" d="M 215.999328 728.000113 L 240.000736 728.000113 " transform="matrix(0.996198, 0, 0, -0.996198, -59.572644, 816.814337)"/>
<path fill="none" stroke-width="0.4" stroke-linecap="butt" stroke-linejoin="round" stroke="rgb(0%, 0%, 0%)" stroke-opacity="1" stroke-miterlimit="10" d="M 219.998909 724.000532 L 236.001155 724.000532 " transform="matrix(0.996198, 0, 0, -0.996198, -59.572644, 816.814337)"/>
<path fill="none" stroke-width="0.4" stroke-linecap="butt" stroke-linejoin="round" stroke="rgb(0%, 0%, 0%)" stroke-opacity="1" stroke-miterlimit="10" d="M 223.99849 720.000951 L 232.001574 720.000951 " transform="matrix(0.996198, 0, 0, -0.996198, -59.572644, 816.814337)"/>
<path fill="none" stroke-width="0.4" stroke-linecap="butt" stroke-linejoin="round" stroke="rgb(0%, 0%, 0%)" stroke-opacity="1" stroke-miterlimit="10" d="M 192.001841 800.000416 L 215.999328 800.000416 L 215.999328 796.000834 " transform="matrix(0.996198, 0, 0, -0.996198, -59.572644, 816.814337)"/>
<path fill="none" stroke-width="0.4" stroke-linecap="butt" stroke-linejoin="round" stroke="rgb(0%, 0%, 0%)" stroke-opacity="1" stroke-miterlimit="10" d="M 215.999328 788.001672 L 215.999328 783.99817 " transform="matrix(0.996198, 0, 0, -0.996198, -59.572644, 816.814337)"/>
<path fill="none" stroke-width="0.4" stroke-linecap="butt" stroke-linejoin="round" stroke="rgb(0%, 0%, 0%)" stroke-opacity="1" stroke-miterlimit="10" d="M 215.999328 783.99817 L 192.001841 752.001521 " transform="matrix(0.996198, 0, 0, -0.996198, -59.572644, 816.814337)"/>
<path fill="none" stroke-width="0.4" stroke-linecap="butt" stroke-linejoin="round" stroke="rgb(0%, 0%, 0%)" stroke-opacity="1" stroke-miterlimit="10" d="M 215.999328 775.999008 L 215.999328 771.999427 " transform="matrix(0.996198, 0, 0, -0.996198, -59.572644, 816.814337)"/>
<path fill="none" stroke-width="0.4" stroke-linecap="butt" stroke-linejoin="round" stroke="rgb(0%, 0%, 0%)" stroke-opacity="1" stroke-miterlimit="10" d="M 215.999328 764.000264 L 215.999328 760.000683 " transform="matrix(0.996198, 0, 0, -0.996198, -59.572644, 816.814337)"/>
<path fill="none" stroke-width="0.4" stroke-linecap="butt" stroke-linejoin="round" stroke="rgb(0%, 0%, 0%)" stroke-opacity="1" stroke-miterlimit="10" d="M 192.001841 783.99817 L 215.999328 775.999008 " transform="matrix(0.996198, 0, 0, -0.996198, -59.572644, 816.814337)"/>
<path fill="none" stroke-width="0.4" stroke-linecap="butt" stroke-linejoin="round" stroke="rgb(0%, 0%, 0%)" stroke-opacity="1" stroke-miterlimit="10" d="M 215.999328 760.000683 L 192.001841 752.001521 " transform="matrix(0.996198, 0, 0, -0.996198, -59.572644, 816.814337)"/>
<path fill-rule="evenodd" fill="rgb(0%, 0%, 0%)" fill-opacity="1" d="M 29.886719 19.855469 C 29.886719 18.867188 29.082031 18.0625 28.09375 18.0625 C 27.101562 18.0625 26.300781 18.867188 26.300781 19.855469 C 26.300781 20.847656 27.101562 21.648438 28.09375 21.648438 C 29.082031 21.648438 29.886719 20.847656 29.886719 19.855469 "/>
<path fill-rule="evenodd" fill="rgb(0%, 0%, 0%)" fill-opacity="1" d="M 29.886719 35.796875 C 29.886719 34.804688 29.082031 34 28.09375 34 C 27.101562 34 26.300781 34.804688 26.300781 35.796875 C 26.300781 36.785156 27.101562 37.589844 28.09375 37.589844 C 29.082031 37.589844 29.886719 36.785156 29.886719 35.796875 "/>
<path fill-rule="evenodd" fill="rgb(0%, 0%, 0%)" fill-opacity="1" d="M 29.886719 51.734375 C 29.886719 50.742188 29.082031 49.941406 28.09375 49.941406 C 27.101562 49.941406 26.300781 50.742188 26.300781 51.734375 C 26.300781 52.722656 27.101562 53.527344 28.09375 53.527344 C 29.082031 53.527344 29.886719 52.722656 29.886719 51.734375 "/>
<path fill-rule="evenodd" fill="rgb(0%, 0%, 0%)" fill-opacity="1" d="M 29.886719 67.671875 C 29.886719 66.683594 29.082031 65.878906 28.09375 65.878906 C 27.101562 65.878906 26.300781 66.683594 26.300781 67.671875 C 26.300781 68.664062 27.101562 69.464844 28.09375 69.464844 C 29.082031 69.464844 29.886719 68.664062 29.886719 67.671875 "/>
<path fill-rule="evenodd" fill="rgb(0%, 0%, 0%)" fill-opacity="1" d="M 29.886719 87.597656 C 29.886719 86.605469 29.082031 85.804688 28.09375 85.804688 C 27.101562 85.804688 26.300781 86.605469 26.300781 87.597656 C 26.300781 88.585938 27.101562 89.390625 28.09375 89.390625 C 29.082031 89.390625 29.886719 88.585938 29.886719 87.597656 "/>
<path fill-rule="evenodd" fill="rgb(0%, 0%, 0%)" fill-opacity="1" d="M 29.886719 103.535156 C 29.886719 102.546875 29.082031 101.742188 28.09375 101.742188 C 27.101562 101.742188 26.300781 102.546875 26.300781 103.535156 C 26.300781 104.527344 27.101562 105.328125 28.09375 105.328125 C 29.082031 105.328125 29.886719 104.527344 29.886719 103.535156 "/>
<path fill-rule="evenodd" fill="rgb(0%, 0%, 0%)" fill-opacity="1" d="M 29.886719 119.476562 C 29.886719 118.484375 29.082031 117.683594 28.09375 117.683594 C 27.101562 117.683594 26.300781 118.484375 26.300781 119.476562 C 26.300781 120.464844 27.101562 121.269531 28.09375 121.269531 C 29.082031 121.269531 29.886719 120.464844 29.886719 119.476562 "/>
<path fill="none" stroke-width="0.4" stroke-linecap="butt" stroke-linejoin="round" stroke="rgb(0%, 0%, 0%)" stroke-opacity="1" stroke-miterlimit="10" d="M 75.998304 735.999275 L 75.998304 695.999543 L 59.999979 695.999543 L 59.999979 735.999275 Z M 75.998304 735.999275 " transform="matrix(0.996198, 0, 0, -0.996198, -59.572644, 816.814337)"/>
<g fill="rgb(0%, 0%, 0%)" fill-opacity="1">
<use xlink:href="#glyph-0-7" x="10.612" y="115.026669"/>
<use xlink:href="#glyph-0-9" x="10.612" y="111.112358"/>
<use xlink:href="#glyph-0-11" x="10.612" y="106.149997"/>
<use xlink:href="#glyph-0-5" x="10.612" y="100.635821"/>
<use xlink:href="#glyph-0-12" x="10.612" y="96.748307"/>
<use xlink:href="#glyph-0-3" x="10.612" y="92.33776"/>
</g>
<path fill="none" stroke-width="0.4" stroke-linecap="butt" stroke-linejoin="round" stroke="rgb(0%, 0%, 0%)" stroke-opacity="1" stroke-miterlimit="10" d="M 88.000968 731.999694 L 75.998304 731.999694 " transform="matrix(0.996198, 0, 0, -0.996198, -59.572644, 816.814337)"/>
<path fill="none" stroke-width="0.4" stroke-linecap="butt" stroke-linejoin="round" stroke="rgb(0%, 0%, 0%)" stroke-opacity="1" stroke-miterlimit="10" d="M 88.000968 716.001369 L 75.998304 716.001369 " transform="matrix(0.996198, 0, 0, -0.996198, -59.572644, 816.814337)"/>
<path fill="none" stroke-width="0.4" stroke-linecap="butt" stroke-linejoin="round" stroke="rgb(0%, 0%, 0%)" stroke-opacity="1" stroke-miterlimit="10" d="M 88.000968 699.999124 L 75.998304 699.999124 " transform="matrix(0.996198, 0, 0, -0.996198, -59.572644, 816.814337)"/>
<g fill="rgb(0%, 0%, 0%)" fill-opacity="1">
<use xlink:href="#glyph-2-3" x="25.611754" y="95.566936"/>
</g>
<g fill="rgb(0%, 0%, 0%)" fill-opacity="1">
<use xlink:href="#glyph-2-0" x="25.335807" y="111.506105"/>
</g>
<g fill="rgb(0%, 0%, 0%)" fill-opacity="1">
<use xlink:href="#glyph-2-5" x="25.887203" y="127.445274"/>
</g>
<path fill="none" stroke-width="0.4" stroke-linecap="butt" stroke-linejoin="round" stroke="rgb(0%, 0%, 0%)" stroke-opacity="1" stroke-miterlimit="10" d="M 192.001841 800.000416 L 208.000166 800.000416 " transform="matrix(0.996198, 0, 0, -0.996198, -59.572644, 816.814337)"/>
<path fill-rule="evenodd" fill="rgb(0%, 0%, 0%)" fill-opacity="1" stroke-width="0.4" stroke-linecap="butt" stroke-linejoin="round" stroke="rgb(0%, 0%, 0%)" stroke-opacity="1" stroke-miterlimit="10" d="M 208.000166 800.000416 L 201.000899 802.329583 L 201.000899 797.667327 Z M 208.000166 800.000416 " transform="matrix(0.996198, 0, 0, -0.996198, -59.572644, 816.814337)"/>
<path fill="none" stroke-width="0.4" stroke-linecap="butt" stroke-linejoin="round" stroke="rgb(0%, 0%, 0%)" stroke-opacity="1" stroke-miterlimit="10" d="M 192.001841 752.001521 L 204.000585 767.999845 " transform="matrix(0.996198, 0, 0, -0.996198, -59.572644, 816.814337)"/>
<path fill-rule="evenodd" fill="rgb(0%, 0%, 0%)" fill-opacity="1" stroke-width="0.4" stroke-linecap="butt" stroke-linejoin="round" stroke="rgb(0%, 0%, 0%)" stroke-opacity="1" stroke-miterlimit="10" d="M 204.000585 767.999845 L 197.934553 763.800285 L 201.663574 761.000578 Z M 204.000585 767.999845 " transform="matrix(0.996198, 0, 0, -0.996198, -59.572644, 816.814337)"/>
<path fill="none" stroke-width="0.4" stroke-linecap="butt" stroke-linejoin="round" stroke="rgb(0%, 0%, 0%)" stroke-opacity="1" stroke-miterlimit="10" d="M 215.999328 775.999008 L 204.000585 779.998589 " transform="matrix(0.996198, 0, 0, -0.996198, -59.572644, 816.814337)"/>
<path fill-rule="evenodd" fill="rgb(0%, 0%, 0%)" fill-opacity="1" stroke-width="0.4" stroke-linecap="butt" stroke-linejoin="round" stroke="rgb(0%, 0%, 0%)" stroke-opacity="1" stroke-miterlimit="10" d="M 204.000585 779.998589 L 209.905849 775.575523 L 211.376283 779.998589 Z M 204.000585 779.998589 " transform="matrix(0.996198, 0, 0, -0.996198, -59.572644, 816.814337)"/>
<path fill="none" stroke-width="0.4" stroke-linecap="butt" stroke-linejoin="round" stroke="rgb(0%, 0%, 0%)" stroke-opacity="1" stroke-miterlimit="10" d="M 215.999328 760.000683 L 204.000585 756.001102 " transform="matrix(0.996198, 0, 0, -0.996198, -59.572644, 816.814337)"/>
<path fill-rule="evenodd" fill="rgb(0%, 0%, 0%)" fill-opacity="1" stroke-width="0.4" stroke-linecap="butt" stroke-linejoin="round" stroke="rgb(0%, 0%, 0%)" stroke-opacity="1" stroke-miterlimit="10" d="M 204.000585 756.001102 L 211.376283 756.001102 L 209.905849 760.424168 Z M 204.000585 756.001102 " transform="matrix(0.996198, 0, 0, -0.996198, -59.572644, 816.814337)"/>
<path fill="none" stroke-width="0.4" stroke-linecap="butt" stroke-linejoin="round" stroke="rgb(0%, 0%, 0%)" stroke-opacity="1" stroke-miterlimit="10" d="M 192.001841 752.001521 L 215.999328 752.001521 " transform="matrix(0.996198, 0, 0, -0.996198, -59.572644, 816.814337)"/>
<path fill-rule="evenodd" fill="rgb(0%, 0%, 0%)" fill-opacity="1" stroke-width="0.4" stroke-linecap="butt" stroke-linejoin="round" stroke="rgb(0%, 0%, 0%)" stroke-opacity="1" stroke-miterlimit="10" d="M 215.999328 752.001521 L 209.000061 754.330689 L 209.000061 749.668432 Z M 215.999328 752.001521 " transform="matrix(0.996198, 0, 0, -0.996198, -59.572644, 816.814337)"/>
<path fill="none" stroke-width="0.4" stroke-linecap="butt" stroke-linejoin="round" stroke="rgb(0%, 0%, 0%)" stroke-opacity="1" stroke-miterlimit="10" d="M 88.000968 800.000416 L 111.998455 800.000416 " transform="matrix(0.996198, 0, 0, -0.996198, -59.572644, 816.814337)"/>
<path fill-rule="evenodd" fill="rgb(0%, 0%, 0%)" fill-opacity="1" stroke-width="0.4" stroke-linecap="butt" stroke-linejoin="round" stroke="rgb(0%, 0%, 0%)" stroke-opacity="1" stroke-miterlimit="10" d="M 111.998455 800.000416 L 104.999188 802.329583 L 104.999188 797.667327 Z M 111.998455 800.000416 " transform="matrix(0.996198, 0, 0, -0.996198, -59.572644, 816.814337)"/>
<path fill="none" stroke-width="0.4" stroke-linecap="butt" stroke-linejoin="round" stroke="rgb(0%, 0%, 0%)" stroke-opacity="1" stroke-miterlimit="10" d="M 88.000968 783.99817 L 111.998455 783.99817 " transform="matrix(0.996198, 0, 0, -0.996198, -59.572644, 816.814337)"/>
<path fill-rule="evenodd" fill="rgb(0%, 0%, 0%)" fill-opacity="1" stroke-width="0.4" stroke-linecap="butt" stroke-linejoin="round" stroke="rgb(0%, 0%, 0%)" stroke-opacity="1" stroke-miterlimit="10" d="M 111.998455 783.99817 L 104.999188 786.331259 L 104.999188 781.669002 Z M 111.998455 783.99817 " transform="matrix(0.996198, 0, 0, -0.996198, -59.572644, 816.814337)"/>
<path fill="none" stroke-width="0.4" stroke-linecap="butt" stroke-linejoin="round" stroke="rgb(0%, 0%, 0%)" stroke-opacity="1" stroke-miterlimit="10" d="M 88.000968 767.999845 L 111.998455 767.999845 " transform="matrix(0.996198, 0, 0, -0.996198, -59.572644, 816.814337)"/>
<path fill-rule="evenodd" fill="rgb(0%, 0%, 0%)" fill-opacity="1" stroke-width="0.4" stroke-linecap="butt" stroke-linejoin="round" stroke="rgb(0%, 0%, 0%)" stroke-opacity="1" stroke-miterlimit="10" d="M 111.998455 767.999845 L 104.999188 770.332934 L 104.999188 765.670678 Z M 111.998455 767.999845 " transform="matrix(0.996198, 0, 0, -0.996198, -59.572644, 816.814337)"/>
<path fill="none" stroke-width="0.4" stroke-linecap="butt" stroke-linejoin="round" stroke="rgb(0%, 0%, 0%)" stroke-opacity="1" stroke-miterlimit="10" d="M 88.000968 752.001521 L 111.998455 752.001521 " transform="matrix(0.996198, 0, 0, -0.996198, -59.572644, 816.814337)"/>
<path fill-rule="evenodd" fill="rgb(0%, 0%, 0%)" fill-opacity="1" stroke-width="0.4" stroke-linecap="butt" stroke-linejoin="round" stroke="rgb(0%, 0%, 0%)" stroke-opacity="1" stroke-miterlimit="10" d="M 111.998455 752.001521 L 104.999188 754.330689 L 104.999188 749.668432 Z M 111.998455 752.001521 " transform="matrix(0.996198, 0, 0, -0.996198, -59.572644, 816.814337)"/>
<path fill="none" stroke-width="0.4" stroke-linecap="butt" stroke-linejoin="round" stroke="rgb(0%, 0%, 0%)" stroke-opacity="1" stroke-miterlimit="10" d="M 88.000968 731.999694 L 111.998455 731.999694 " transform="matrix(0.996198, 0, 0, -0.996198, -59.572644, 816.814337)"/>
<path fill-rule="evenodd" fill="rgb(0%, 0%, 0%)" fill-opacity="1" stroke-width="0.4" stroke-linecap="butt" stroke-linejoin="round" stroke="rgb(0%, 0%, 0%)" stroke-opacity="1" stroke-miterlimit="10" d="M 111.998455 731.999694 L 104.999188 734.332783 L 104.999188 729.670526 Z M 111.998455 731.999694 " transform="matrix(0.996198, 0, 0, -0.996198, -59.572644, 816.814337)"/>
<path fill="none" stroke-width="0.4" stroke-linecap="butt" stroke-linejoin="round" stroke="rgb(0%, 0%, 0%)" stroke-opacity="1" stroke-miterlimit="10" d="M 88.000968 716.001369 L 111.998455 716.001369 " transform="matrix(0.996198, 0, 0, -0.996198, -59.572644, 816.814337)"/>
<path fill-rule="evenodd" fill="rgb(0%, 0%, 0%)" fill-opacity="1" stroke-width="0.4" stroke-linecap="butt" stroke-linejoin="round" stroke="rgb(0%, 0%, 0%)" stroke-opacity="1" stroke-miterlimit="10" d="M 111.998455 716.001369 L 104.999188 718.330537 L 104.999188 713.66828 Z M 111.998455 716.001369 " transform="matrix(0.996198, 0, 0, -0.996198, -59.572644, 816.814337)"/>
<path fill="none" stroke-width="0.4" stroke-linecap="butt" stroke-linejoin="round" stroke="rgb(0%, 0%, 0%)" stroke-opacity="1" stroke-miterlimit="10" d="M 88.000968 699.999124 L 111.998455 699.999124 " transform="matrix(0.996198, 0, 0, -0.996198, -59.572644, 816.814337)"/>
<path fill-rule="evenodd" fill="rgb(0%, 0%, 0%)" fill-opacity="1" stroke-width="0.4" stroke-linecap="butt" stroke-linejoin="round" stroke="rgb(0%, 0%, 0%)" stroke-opacity="1" stroke-miterlimit="10" d="M 111.998455 699.999124 L 104.999188 702.332213 L 104.999188 697.669956 Z M 111.998455 699.999124 " transform="matrix(0.996198, 0, 0, -0.996198, -59.572644, 816.814337)"/>
</svg>
